<svg id="Layer_1" data-name="Layer 1" xmlns="http://www.w3.org/2000/svg" viewBox="0 0 479.34 164.29"><defs><style>.cls-1{fill:none;}.cls-2{fill:#033c01;}.cls-3{fill:#e1dfc8;}.cls-4{fill:#f9ab0d;}.cls-5{fill:#93ac01;}.cls-6{fill:#397703;}.cls-7{fill:#f9bf1f;}.cls-8{fill:#022205;}.cls-9{fill:#fa7403;}.cls-10{fill:#a3b901;}.cls-11{fill:#fcf5c0;}.cls-12{fill:#699e3f;}.cls-13{fill:#fa9304;}.cls-14{fill:#053d03;}</style></defs><title>logo-verduleria-proyecto</title><path class="cls-1" d="M354.73,203.36q-3.36-.24-6.72-.42Q351.37,203.12,354.73,203.36Z" transform="translate(-10.77 -183.45)"/><path class="cls-1" d="M330.93,202.36l-1.53-.14Z" transform="translate(-10.77 -183.45)"/><path class="cls-1" d="M114.43,204.53a6.26,6.26,0,0,1-1-.5A6.26,6.26,0,0,0,114.43,204.53Z" transform="translate(-10.77 -183.45)"/><path class="cls-1" d="M266,200.41h3.49a30.94,30.94,0,0,0,3.47.11,30.94,30.94,0,0,1-3.47-.11Z" transform="translate(-10.77 -183.45)"/><path class="cls-1" d="M116.24,321a3.65,3.65,0,0,1,1.17-.54,3.65,3.65,0,0,0-1.17.54c-.77.14-1.14.47-1.2,1C115.1,321.44,115.47,321.11,116.24,321Z" transform="translate(-10.77 -183.45)"/><path class="cls-1" d="M117.66,204.82a5.56,5.56,0,0,1-1.84.1,5.63,5.63,0,0,0,1.85-.1c3.78.1,7.53-.51,11.31-.53C125.2,204.31,121.45,204.92,117.66,204.82Z" transform="translate(-10.77 -183.45)"/><path class="cls-1" d="M37.14,212.49l10.15-1.14C43.81,211.73,40.42,212.11,37.14,212.49Z" transform="translate(-10.77 -183.45)"/><path class="cls-1" d="M248.32,234.13c5.09,0,10.18,0,15.28,0-5.1,0-10.19,0-15.28,0-1.94,0-3.88,0-5.81,0C244.44,234.1,246.38,234.13,248.32,234.13Z" transform="translate(-10.77 -183.45)"/><path class="cls-1" d="M131.39,204.06h0a10.17,10.17,0,0,1-4.8-1.05A10.17,10.17,0,0,0,131.39,204.06Z" transform="translate(-10.77 -183.45)"/><path class="cls-1" d="M131.39,204.06l7.34-.61h0Z" transform="translate(-10.77 -183.45)"/><path class="cls-1" d="M296.77,322.88a1.75,1.75,0,0,0-.24-.74,1.75,1.75,0,0,1,.24.74Z" transform="translate(-10.77 -183.45)"/><path class="cls-1" d="M151,202.73h0l4.88-.15,1.4,0-1.4,0Z" transform="translate(-10.77 -183.45)"/><path class="cls-2" d="M156.63,317.73c3.14-.22,6.29-.4,9.45-.5,4.72-.15,9.45-.34,14.16-.81a40,40,0,0,1,6.66,0c2.43-.14,4.86-.33,7.3-.41,6.59-.22,13.18-.38,19.78-.59,22.94-.73,45.89-.57,68.83-.25,9.18.12,18.35.53,27.52.84,2.22.08,4.44.27,6.65.4l13.29.55c.93,0,1.85.15,2.78.17,9.51.26,19,.88,28.5,1.46,6.85.41,13.69,1.07,20.53,1.65.71.06,1.42.13,2.13.22,20.47,1.63,41.16,3.7,61.92,6.26a7.06,7.06,0,0,1,2.55,0c4.5.67,9,1.38,13.49,2.06l.31.05q10,1.36,20.08,2.89a20,20,0,0,0,3.29.11,2.61,2.61,0,0,1,2.1.72l1.49.24a4.28,4.28,0,0,1,.66-.55v-.86a8.66,8.66,0,0,1-1.52-3.18A150.46,150.46,0,0,1,481,292.8a174.75,174.75,0,0,1,1.29-40.75,242.44,242.44,0,0,1,6.9-32.55,13.93,13.93,0,0,0,.6-2.63c-132.28-18-252.86-18.32-344.73-13.41l-.35,0q-7,.38-13.82.8l-.06,0-.19,0h-.34c-31.7,1.95-59.61,4.49-83,7l-10.15,1.14c-9.26,1.08-17.69,2.14-25.23,3.15a3.84,3.84,0,0,1-1.14.34v1.29c.66.34.73,1,.91,1.61a255.46,255.46,0,0,1,9.32,43,171.53,171.53,0,0,1,1.35,25.73C21.89,302.43,19,316.7,12.11,330a1.39,1.39,0,0,0-.06.13c35.78-4.42,85.38-9.43,143.57-12.33ZM59.84,318.8C50.23,320,40.61,321.09,31,322.22c-1.14.13-2.29.19-3.44.22S25.86,322.1,26,321c.5-3.62,1-7.24,1.66-10.84.25-1.45,1.39-2.09,2.74-2.4a101.11,101.11,0,0,0,10.52-3c.67-.23,1.32-.51,2-.77A61.4,61.4,0,0,0,32.41,303a10.87,10.87,0,0,1-1.51,0c-1.48-.16-2.15-.79-2-2.23.35-3.28.8-6.55,1.31-9.8a3.79,3.79,0,0,1,3-3.08c2.41-.7,4.83-1.37,7.23-2.07,1.45-.42,2.88-.87,4.32-1.32.41-.12.84-.21.91-.78-.56-.62-1.33-.39-2-.43-3.58-.19-7.16-.33-10.75-.48-2.08-.09-2.45-.41-2.43-2.39a94.74,94.74,0,0,0-.14-9.68c-.16-1.76.48-2.48,2.42-3,3.47-.9,6.93-1.82,10.31-3l1.74-.66c-.07-.88-.67-.52-1-.54-3.73-.2-7.46-.36-11.18-.53-2.38-.1-3-.65-3.4-3-.62-4-1.2-7.94-2-11.87-.44-2.08-.17-2.38,2-3l10.58-2.88a4,4,0,0,0,1.4-.5.55.55,0,0,0-.17-1,4.91,4.91,0,0,0-1.49-.11c-3.52,0-7,0-10.55,0-3,0-3.71-.62-4.57-3.49-1.26-4.19-2.55-8.37-3.83-12.55-.13-.41-.28-.81-.37-1.23-.3-1.38-.16-1.71,1.23-1.92,2-.31,4-.49,6-.69,10.07-1,20.13-2,30.2-2.93q13.62-1.25,27.24-2.32,16.41-1.29,32.84-2.41c8.31-.55,16.62-1,24.93-1.4q17.75-.85,35.49-1.55,15.27-.6,30.56-.76c14.13-.15,28.27-.39,42.4-.41,25.27,0,50.52.5,75.76,1.38q20.65.7,41.28,2c9.88.66,19.77,1.23,29.65,1.91,8.8.6,17.6,1.34,26.4,1.95,7.51.53,15,1.12,22.52,1.86q9.52.93,19.06,1.9c3.92.39,7.84.81,11.77,1.16,4.36.39,3.73,1,2.79,3.94-1.35,4.23-2.62,8.49-3.92,12.74-.67,2.18-1,2.46-3.33,2.58-3.66.21-7.31.38-11,.58a12.76,12.76,0,0,0-3.33.44c.33.68.87.67,1.34.79l11.23,3c2.63.68,2.87,1.07,2.21,3.77q-1.26,5.24-2,10.56c-.41,3-.67,3.23-3.65,3.32-3.8.12-7.58.52-11.36,1a2.07,2.07,0,0,0-1.57.64l11.92,3.15c.49.13,1,.24,1.45.4a2.25,2.25,0,0,1,1.67,2.45c-.18,3.15-.33,6.31-.57,9.45-.15,2-.81,2.58-2.89,2.76-2.29.19-4.58.25-6.87.43-1.93.15-3.85.39-5.76.58-.09.73.44.68.82.78,3.86,1.11,7.7,2.28,11.63,3.12,2.71.58,3.46,1.52,3.48,4.32a61.76,61.76,0,0,0,.67,7.93c.32,2.37-.34,3.18-2.78,3.15a52,52,0,0,0-10.48,1c.08.71.68.63,1.12.75,3.46.93,6.91,1.91,10.39,2.74,2.07.5,3.19,1.52,3.42,3.76a62.4,62.4,0,0,0,1.8,8.84c.48,1.91,0,2.38-1.91,2.14-8.33-1-16.65-2.12-25-3.11-7-.84-14-1.59-21-2.32q-11.88-1.23-23.78-2.33c-6.21-.57-12.43-1.07-18.66-1.54-9.08-.7-18.17-1.39-27.26-2-7.8-.53-15.61-1-23.42-1.39-19.57-.94-39.16-1.37-58.74-1.73-18.88-.34-37.75-.13-56.62.32-17,.4-34,1-51,1.87q-21.18,1.09-42.31,2.8c-9.66.78-19.32,1.48-29,2.35C83.51,316.19,71.66,317.34,59.84,318.8Z" transform="translate(-10.77 -183.45)"/><path class="cls-2" d="M138.73,203.45l-7.34.61h0c-.18.06-.36.16-.54.22q6.79-.42,13.82-.8c-.95.05-1.91.08-2.87.08S139.76,203.51,138.73,203.45Z" transform="translate(-10.77 -183.45)"/><path class="cls-2" d="M476.51,330.88c2,.24,4,.65,6.05.86q-10.05-1.53-20.08-2.89C467.15,329.55,471.82,330.33,476.51,330.88Z" transform="translate(-10.77 -183.45)"/><path class="cls-2" d="M488,332.57a3.23,3.23,0,0,1,.43.58,1.08,1.08,0,0,0,1.06-.34Z" transform="translate(-10.77 -183.45)"/><path class="cls-3" d="M166.64,310c17-.89,34-1.47,51-1.87,18.87-.45,37.74-.66,56.62-.32,19.58.36,39.17.79,58.74,1.73,7.81.37,15.62.86,23.42,1.39,9.09.61,18.18,1.3,27.26,2,6.23.47,12.45,1,18.66,1.54q11.9,1.1,23.78,2.33c7,.73,14,1.48,21,2.32,8.33,1,16.65,2.08,25,3.11,1.95.24,2.39-.23,1.91-2.14a62.4,62.4,0,0,1-1.8-8.84c-.23-2.24-1.35-3.26-3.42-3.76-3.48-.83-6.93-1.81-10.39-2.74-.44-.12-1,0-1.12-.75a52,52,0,0,1,10.48-1c2.44,0,3.1-.78,2.78-3.15a61.76,61.76,0,0,1-.67-7.93c0-2.8-.77-3.74-3.48-4.32-3.93-.84-7.77-2-11.63-3.12-.38-.1-.91,0-.82-.78,1.91-.19,3.83-.43,5.76-.58,2.29-.18,4.58-.24,6.87-.43,2.08-.18,2.74-.78,2.89-2.76.24-3.14.39-6.3.57-9.45A2.25,2.25,0,0,0,468.3,268c-.48-.16-1-.27-1.45-.4l-11.92-3.15a2.07,2.07,0,0,1,1.57-.64c3.78-.44,7.56-.84,11.36-1,3-.09,3.24-.34,3.65-3.32q.74-5.33,2-10.56c.66-2.7.42-3.09-2.21-3.77l-11.23-3c-.47-.12-1-.11-1.34-.79a12.76,12.76,0,0,1,3.33-.44c3.66-.2,7.31-.37,11-.58,2.32-.12,2.66-.4,3.33-2.58,1.3-4.25,2.57-8.51,3.92-12.74.94-3,1.57-3.55-2.79-3.94-3.93-.35-7.85-.77-11.77-1.16q-9.54-1-19.06-1.9c-7.5-.74-15-1.33-22.52-1.86-8.8-.61-17.6-1.35-26.4-1.95-9.88-.68-19.77-1.25-29.65-1.91q-20.62-1.36-41.28-2c-25.24-.88-50.49-1.43-75.76-1.38-14.13,0-28.27.26-42.4.41q-15.28.15-30.56.76-17.75.69-35.49,1.55c-8.31.4-16.62.85-24.93,1.4q-16.42,1.11-32.84,2.41-13.62,1.06-27.24,2.32c-10.07.93-20.13,1.95-30.2,2.93-2,.2-4,.38-6,.69-1.39.21-1.53.54-1.23,1.92.09.42.24.82.37,1.23,1.28,4.18,2.57,8.36,3.83,12.55.86,2.87,1.59,3.47,4.57,3.49,3.52,0,7,0,10.55,0a4.91,4.91,0,0,1,1.49.11.55.55,0,0,1,.17,1,4,4,0,0,1-1.4.5l-10.58,2.88c-2.16.58-2.43.88-2,3,.84,3.93,1.42,7.9,2,11.87.36,2.33,1,2.88,3.4,3,3.72.17,7.45.33,11.18.53.31,0,.91-.34,1,.54l-1.74.66c-3.38,1.22-6.84,2.14-10.31,3-1.94.49-2.58,1.21-2.42,3a94.74,94.74,0,0,1,.14,9.68c0,2,.35,2.3,2.43,2.39,3.59.15,7.17.29,10.75.48.68,0,1.45-.19,2,.43-.07.57-.5.66-.91.78-1.44.45-2.87.9-4.32,1.32-2.4.7-4.82,1.37-7.23,2.07a3.79,3.79,0,0,0-3,3.08c-.51,3.25-1,6.52-1.31,9.8-.16,1.44.51,2.07,2,2.23a10.87,10.87,0,0,0,1.51,0,61.4,61.4,0,0,1,10.51.95c-.66.26-1.31.54-2,.77a101.11,101.11,0,0,1-10.52,3c-1.35.31-2.49.95-2.74,2.4-.62,3.6-1.16,7.22-1.66,10.84-.16,1.13.28,1.5,1.53,1.47s2.3-.09,3.44-.22c9.62-1.13,19.24-2.24,28.85-3.42,11.82-1.46,23.67-2.61,35.53-3.68,9.64-.87,19.3-1.57,29-2.35Q145.46,311,166.64,310Zm240.47-26.81c1.34-2.62,2.73-5.21,4.12-7.8q7.32-13.64,14.64-27.27c.66-1.22,1.38-2.21,2.35-2,3.1.44,5.58.82,8.07,1.13a2.84,2.84,0,0,1,2.64,2.62c1.65,7.85,3.4,15.68,5.09,23.52,1.1,5.11,2.15,10.23,3.21,15.35.46,2.24-.07,2.8-2.27,2.46-1.63-.26-3.26-.49-4.89-.73a2.3,2.3,0,0,1-2.17-2c-.32-1.76-.84-3.48-1.16-5.24-.16-.91-.52-1.41-1.46-1.53-5-.68-9.94-1.36-14.9-2.09-.87-.13-1.14.33-1.46.92-.85,1.58-1.76,3.12-2.57,4.72a2.4,2.4,0,0,1-2.78,1.47c-1.7-.26-3.42-.39-5.12-.67C406.47,285.63,406.17,285,407.11,283.16Zm-37.58-4.79q1.2-12.75,2.42-25.49l1-10.71c.19-2.1.56-2.41,2.71-2.22,5.85.54,11.71,1,17.54,1.86a18.78,18.78,0,0,1,8,3,11.53,11.53,0,0,1,5.26,10.88c-.31,5-2.51,8.9-7.24,11.07a3.87,3.87,0,0,1-1,.4c-1.11.17-.94.79-.62,1.54q2.82,6.63,5.62,13.26a14.05,14.05,0,0,1,.58,1.39c.32,1.1-.22,2-1.33,1.86-2.36-.19-4.71-.48-7.05-.85-1.21-.2-1.64-1.3-2-2.31-1.61-4-3.3-7.94-4.79-12a2.89,2.89,0,0,0-2.87-2.28c-1.71-.07-3.41-.3-5.27-.47-.33,3.21-.66,6.33-1,9.46-.13,1.28-.24,2.57-.41,3.85-.18,1.46-.51,1.81-1.89,1.73-2.08-.11-4.15-.33-6.22-.54a1.49,1.49,0,0,1-1.49-1.73C369.45,279.51,369.48,278.94,369.53,278.37Zm-41.23-2.09q.42-7.2.86-14.38l1.2-19.53c.08-1.29.15-2.58.28-3.86.17-1.71.44-2,2.15-1.91,3.79.19,7.58.45,11.37.73a48.68,48.68,0,0,1,9.17,1,23.15,23.15,0,0,1,3.06,1c7,3,8.88,8.17,7.77,14.74a11.33,11.33,0,0,1-6.73,8.63,4.47,4.47,0,0,0-1.75,1l6.27,13.6a17.38,17.38,0,0,1,.77,1.78c.36,1.12-.11,2-1.24,1.9-2.35-.12-4.71-.37-7.05-.64-1.26-.14-1.69-1.22-2.13-2.21-1.74-3.93-3.54-7.83-5.17-11.8-.62-1.54-1.41-2.28-3.13-2.17a21.78,21.78,0,0,1-3.85-.29c-.89-.1-1.28.16-1.34,1.12-.2,3.58-.48,7.15-.73,10.73,0,.57,0,1.15-.11,1.71-.2,1.23-.6,1.6-1.88,1.56-1.93-.05-3.87-.15-5.79-.33S328.2,278,328.3,276.28Zm-38-2c.16-6.1.36-12.19.54-18.28h0q.3-9.34.6-18.71c.08-2.34.28-2.5,2.69-2.45,8.75.16,17.49.65,26.23,1,2.14.09,2.48.49,2.37,2.62-.06,1.14-.07,2.29-.17,3.44-.12,1.39-.5,1.77-1.89,1.75-2,0-4-.13-6-.22-4.08-.19-8.16-.39-12.25-.57-1.48-.07-1.53-.06-1.61,1.52-.11,2.08-.16,4.16-.2,6.24,0,1.52,0,1.52,1.45,1.6l15.91.76c2.42.11,2.58.28,2.51,2.65,0,1.08,0,2.16-.13,3.23a1.52,1.52,0,0,1-1.7,1.55l-1.5,0-15.05-.66c-1.83-.08-1.83-.09-1.9,1.8q-.14,3.12-.26,6.24c-.07,1.54-.06,1.56,1.44,1.62,3.73.16,7.46.29,11.18.46q3.45.15,6.88.38c1.7.12,2,.41,1.95,2.11,0,1.08-.06,2.15-.11,3.23-.11,2.18-.43,2.51-2.57,2.43-3.95-.16-7.89-.37-11.83-.54-4.73-.21-9.46-.39-14.19-.6C290.45,276.73,290.25,276.52,290.31,274.24Zm-18.69-6c0-4.37,0-8.74,0-13.1h.11q.18-9.22.38-18.46c.05-2.14.43-2.47,2.55-2.42l5.15.14c2.2.06,2.44.26,2.4,2.53-.12,6.87-.29,13.74-.44,20.62q-.16,7.95-.32,15.89c0,.57-.05,1.15-.1,1.72a1.34,1.34,0,0,1-1.41,1.34q-3.54,0-7.08-.18c-1.12-.05-1.34-.91-1.33-1.84C271.55,272.41,271.61,270.34,271.62,268.26Zm-41.2-32c0-1.44.33-1.81,1.76-1.86,3.44-.14,6.88-.19,10.33-.24,1.93,0,3.87,0,5.81,0,5.09,0,10.18,0,15.28,0,2.23,0,2.55.36,2.55,2.67q0,1.73,0,3.45c0,2-.37,2.33-2.45,2.33-2.87,0-5.74,0-8.61,0-1.73,0-1.75,0-1.75,1.8q0,14.21,0,28.41c0,.5,0,1,0,1.5-.07,1.65-.38,2-2.08,2s-3.59,0-5.38,0-2.27-.33-2.3-2.25q-.1-6.78-.14-13.56-.06-8-.07-15.92c0-2.21-.22-1.93-1.86-1.9-2.87.05-5.74.06-8.61.06-2,0-2.33-.3-2.4-2.38C230.42,239,230.39,237.6,230.42,236.24Zm-26.85-1.11c2.36-.11,4.73-.17,7.09-.22a1.4,1.4,0,0,1,1.47,1.29,9.38,9.38,0,0,1,.11,1.5q.28,9.24.56,18.48.3,9,.61,18c.09,2.38-.22,2.74-2.6,2.83-1.72.06-3.44.12-5.16.12s-2-.21-2.09-2c-.25-4.58-.45-9.16-.64-13.74q-.46-11.49-.91-23c0-.5,0-1,0-1.51A1.55,1.55,0,0,1,203.57,235.13ZM153.64,238c1.29-.11,2.6-.06,3.87-.27a3.13,3.13,0,0,1,3.4,1.68c1.44,2.22,2.92,4.42,4.37,6.64,2.55,3.9,5.08,7.81,7.6,11.69.85,0,.86-.76,1.08-1.22,2.94-6,5.91-11.95,8.73-18,.91-2,2.17-2.88,4.32-2.74,1.06.07,2.15-.06,3.22-.09,2.27-.05,2.54.22,2.66,2.56s.23,4.73.34,7.09q.71,14.63,1.4,29.23c0,.5,0,1,0,1.51a1.39,1.39,0,0,1-1.39,1.58c-2.08.15-4.16.26-6.23.31-1.26,0-1.47-.88-1.53-1.9q-.36-6.22-.73-12.45-.28-5.13-.56-10.24l-.44-.08-3.93,8.33c-.62,1.29-1.22,2.59-1.83,3.89-1.4,3-2.37,3.54-5.68,3.3a3.16,3.16,0,0,1-2.46-1.85q-3.39-5.36-6.82-10.69c-.38-.58-.59-1.32-1.45-1.7.33,4.49.66,8.88,1,13.28.23,3.15.48,6.3.66,9.45.11,1.93-.21,2.23-2.12,2.39-1.65.13-3.29.32-4.94.38-1.48.06-1.91-.34-2-1.84q-.85-10-1.66-19.94c-.46-5.79-.93-11.58-1.35-17.37C151,238.54,151.25,238.25,153.64,238ZM83.12,287.67a58.83,58.83,0,0,1-9.48,1.85c-3.53.57-7.08,1.07-10.62,1.6-1.84.27-2.36-.05-2.65-1.86-1.33-8.34-2.63-16.69-3.95-25-.65-4.11-1.31-8.21-2-12.31-.23-1.49.11-2.11,1.47-2.32q8.72-1.34,17.44-2.57a16.89,16.89,0,0,1,2.36,0,16.75,16.75,0,0,1,8,1.35c4.74,2.08,7.29,5.91,8.33,10.79a68.61,68.61,0,0,1,1.66,13.21C93.82,279.22,91.53,284.85,83.12,287.67Zm22.95-2.49c-.28,0-.57.08-.85.1-1.64.09-2.08-.24-2.29-1.82-.44-3.42-.85-6.83-1.27-10.25q-1.65-13.33-3.29-26.68c0-.21-.07-.42-.09-.64-.17-1.76.1-2.18,1.86-2.43q4-.57,8.11-1c6.06-.67,12.11-1.34,18.18-1.93,2.84-.28,3-.07,3.21,2.86.06.85.19,1.71.26,2.56.13,1.54-.29,2.09-1.86,2.27-3.06.34-6.13.61-9.2.93s-5.85.61-8.77.95c-1.52.18-1.53.25-1.35,1.74.24,2.07.47,4.13.71,6.2.17,1.51.18,1.56,1.71,1.4,4.49-.47,9-1,13.47-1.46,1.14-.13,2.29-.21,3.43-.3a1.47,1.47,0,0,1,1.75,1.45c.13,1.29.3,2.57.36,3.86.07,1.53-.27,1.92-1.77,2.09-4,.44-8,.85-12,1.28l-4.27.46c-1.54.17-1.6.18-1.46,1.67.26,2.63.6,5.25.93,8.1l17.33-1.84c.86-.09,1.72-.15,2.58-.23a1.49,1.49,0,0,1,1.79,1.42c.2,1.56.39,3.13.46,4.7.05,1.06-.52,1.52-1.82,1.66-2.57.29-5.14.54-7.7.82Z" transform="translate(-10.77 -183.45)"/><polygon class="cls-4" points="255.19 16.95 255.19 16.95 255.19 16.95 255.19 16.95"/><path class="cls-4" d="M251.54,200.48c4.81,0,9.61,0,14.42-.07h0C261.15,200.43,256.35,200.47,251.54,200.48Z" transform="translate(-10.77 -183.45)"/><path class="cls-4" d="M158.64,202.59c-.47,0-.93,0-1.4,0C157.71,202.61,158.17,202.61,158.64,202.59Z" transform="translate(-10.77 -183.45)"/><path class="cls-5" d="M387.49,321.51h0a.79.79,0,0,0-.37-.55A.79.79,0,0,1,387.49,321.51Z" transform="translate(-10.77 -183.45)"/><path class="cls-5" d="M386.53,320.79a1.49,1.49,0,0,1,.59.17A1.49,1.49,0,0,0,386.53,320.79Z" transform="translate(-10.77 -183.45)"/><path class="cls-5" d="M296.53,322.14a1.21,1.21,0,0,0-.7-.57A1.21,1.21,0,0,1,296.53,322.14Z" transform="translate(-10.77 -183.45)"/><path class="cls-6" d="M334.54,202.57c4.49,0,9,.14,13.47.37-4.49-.23-9-.39-13.47-.37Z" transform="translate(-10.77 -183.45)"/><path class="cls-6" d="M130.26,204.31h.34l.19,0,.06,0Z" transform="translate(-10.77 -183.45)"/><path class="cls-6" d="M130.79,204.3l.06,0h0Z" transform="translate(-10.77 -183.45)"/><path class="cls-6" d="M131.39,204.06c-.18.06-.36.16-.54.22h0c.18-.06.36-.16.54-.22Z" transform="translate(-10.77 -183.45)"/><path class="cls-7" d="M274.65,200.46l-1.73,0Z" transform="translate(-10.77 -183.45)"/><path class="cls-8" d="M15.41,331.57a6,6,0,0,0-2.89,1.57h0A6,6,0,0,1,15.41,331.57Z" transform="translate(-10.77 -183.45)"/><path class="cls-8" d="M448.68,326.74a7.06,7.06,0,0,0-2.55,0q8.17,1,16.35,2.13l-.31-.05C457.67,328.12,453.18,327.41,448.68,326.74Z" transform="translate(-10.77 -183.45)"/><path class="cls-8" d="M485.85,331.85a20,20,0,0,1-3.29-.11l5.39.83A2.61,2.61,0,0,0,485.85,331.85Z" transform="translate(-10.77 -183.45)"/><path class="cls-8" d="M436.8,346.21a3.4,3.4,0,0,0-.44,1.53A3.4,3.4,0,0,1,436.8,346.21Z" transform="translate(-10.77 -183.45)"/><path class="cls-9" d="M334.54,202.57c-1.21,0-2.41-.1-3.61-.21,1.2.11,2.4.21,3.61.21Z" transform="translate(-10.77 -183.45)"/><path class="cls-9" d="M277,197.5h0l-.57,2.89.57-2.89Z" transform="translate(-10.77 -183.45)"/><path class="cls-10" d="M386.92,323.91a10,10,0,0,0,.57-2.4h0A10,10,0,0,1,386.92,323.91Z" transform="translate(-10.77 -183.45)"/><path class="cls-11" d="M265,198.14a3.55,3.55,0,0,1,1,2.27h0A3.55,3.55,0,0,0,265,198.14Z" transform="translate(-10.77 -183.45)"/><path class="cls-12" d="M115.82,204.92a5,5,0,0,1-1.39-.39A5,5,0,0,0,115.82,204.92Z" transform="translate(-10.77 -183.45)"/><path class="cls-12" d="M113.47,204A9.68,9.68,0,0,1,112.1,203,9.68,9.68,0,0,0,113.47,204Z" transform="translate(-10.77 -183.45)"/><path class="cls-13" d="M145,203.46l-.35,0Z" transform="translate(-10.77 -183.45)"/><path class="cls-13" d="M151,202.73a45.73,45.73,0,0,1-5.93.73h0a45.88,45.88,0,0,0,5.94-.73Z" transform="translate(-10.77 -183.45)"/><path class="cls-13" d="M138.73,203.45c1,.06,2.05.1,3.07.11-1,0-2-.05-3.07-.11Z" transform="translate(-10.77 -183.45)"/><path class="cls-13" d="M144.67,203.48h0l.35,0h0Z" transform="translate(-10.77 -183.45)"/><path class="cls-13" d="M141.8,203.56c1,0,1.92,0,2.87-.08h0C143.72,203.53,142.76,203.56,141.8,203.56Z" transform="translate(-10.77 -183.45)"/><path class="cls-14" d="M152.49,258.35q.81,10,1.66,19.94c.13,1.5.56,1.9,2,1.84,1.65-.06,3.29-.25,4.94-.38,1.91-.16,2.23-.46,2.12-2.39-.18-3.15-.43-6.3-.66-9.45-.32-4.4-.65-8.79-1-13.28.86.38,1.07,1.12,1.45,1.7q3.44,5.32,6.82,10.69a3.16,3.16,0,0,0,2.46,1.85c3.31.24,4.28-.3,5.68-3.3.61-1.3,1.21-2.6,1.83-3.89l3.93-8.33.44.08q.27,5.11.56,10.24.36,6.22.73,12.45c.06,1,.27,1.94,1.53,1.9,2.07,0,4.15-.16,6.23-.31a1.39,1.39,0,0,0,1.39-1.58c0-.5,0-1,0-1.51q-.7-14.61-1.4-29.23c-.11-2.36-.23-4.72-.34-7.09s-.39-2.61-2.66-2.56c-1.07,0-2.16.16-3.22.09-2.15-.14-3.41.77-4.32,2.74-2.82,6-5.79,12-8.73,18-.22.46-.23,1.17-1.08,1.22-2.52-3.88-5-7.79-7.6-11.69-1.45-2.22-2.93-4.42-4.37-6.64a3.13,3.13,0,0,0-3.4-1.68c-1.27.21-2.58.16-3.87.27-2.39.21-2.68.5-2.5,2.94C151.56,246.77,152,252.56,152.49,258.35Z" transform="translate(-10.77 -183.45)"/><path class="cls-14" d="M83.71,248.36a16.75,16.75,0,0,0-8-1.35,16.89,16.89,0,0,0-2.36,0q-8.73,1.24-17.44,2.57c-1.36.21-1.7.83-1.47,2.32.64,4.1,1.3,8.2,2,12.31,1.32,8.35,2.62,16.7,3.95,25,.29,1.81.81,2.13,2.65,1.86,3.54-.53,7.09-1,10.62-1.6a58.83,58.83,0,0,0,9.48-1.85c8.41-2.82,10.7-8.45,10.58-15.31A68.61,68.61,0,0,0,92,259.15C91,254.27,88.45,250.44,83.71,248.36Zm-5.46,32.42c-2.7.74-5.51.86-8.25,1.37-1,.19-1-.57-1.06-1.21-.41-2.69-.83-5.38-1.23-8.07q-1.09-7.22-2.17-14.43c-.06-.43-.06-.87-.15-1.28-.17-.82.13-1.15,1-1.26,2.55-.32,5.09-.85,7.66-1,4.2-.3,7,1.76,8.1,5.83a39.53,39.53,0,0,1,.93,4.85c.35,2.55.6,5.11.84,7.14C83.89,277.35,82.17,279.7,78.25,280.78Z" transform="translate(-10.77 -183.45)"/><path class="cls-14" d="M370.91,281.82c2.07.21,4.14.43,6.22.54,1.38.08,1.71-.27,1.89-1.73.17-1.28.28-2.57.41-3.85.33-3.13.66-6.25,1-9.46,1.86.17,3.56.4,5.27.47a2.89,2.89,0,0,1,2.87,2.28c1.49,4,3.18,8,4.79,12,.4,1,.83,2.11,2,2.31,2.34.37,4.69.66,7.05.85,1.11.09,1.65-.76,1.33-1.86a14.05,14.05,0,0,0-.58-1.39q-2.81-6.63-5.62-13.26c-.32-.75-.49-1.37.62-1.54a3.87,3.87,0,0,0,1-.4c4.73-2.17,6.93-6,7.24-11.07a11.53,11.53,0,0,0-5.26-10.88,18.78,18.78,0,0,0-8-3c-5.83-.82-11.69-1.32-17.54-1.86-2.15-.19-2.52.12-2.71,2.22l-1,10.71q-1.21,12.75-2.42,25.49c0,.57-.08,1.14-.11,1.72A1.49,1.49,0,0,0,370.91,281.82Zm10.33-23.32c.37-3,.66-6,.94-9,.09-1,.47-1.37,1.5-1.22,2.56.34,5.15.48,7.68.91,4,.69,5.85,4,4.45,7.89a4.72,4.72,0,0,1-3.91,3.25,8.35,8.35,0,0,1-2.36.11l-7.06-.68C381.7,259.71,381.12,259.56,381.24,258.5Z" transform="translate(-10.77 -183.45)"/><path class="cls-14" d="M330.3,278.61c1.92.18,3.86.28,5.79.33,1.28,0,1.68-.33,1.88-1.56.09-.56.07-1.14.11-1.71.25-3.58.53-7.15.73-10.73.06-1,.45-1.22,1.34-1.12a21.78,21.78,0,0,0,3.85.29c1.72-.11,2.51.63,3.13,2.17,1.63,4,3.43,7.87,5.17,11.8.44,1,.87,2.07,2.13,2.21,2.34.27,4.7.52,7.05.64,1.13.05,1.6-.78,1.24-1.9a17.38,17.38,0,0,0-.77-1.78l-6.27-13.6a4.47,4.47,0,0,1,1.75-1,11.33,11.33,0,0,0,6.73-8.63c1.11-6.57-.76-11.71-7.77-14.74a23.15,23.15,0,0,0-3.06-1,48.68,48.68,0,0,0-9.17-1c-3.79-.28-7.58-.54-11.37-.73-1.71-.09-2,.2-2.15,1.91-.13,1.28-.2,2.57-.28,3.86l-1.2,19.53q-.44,7.19-.86,14.38C328.2,278,328.51,278.44,330.3,278.61Zm9.13-23.76c.27-3,.51-6,.68-9,.06-1,.45-1.2,1.34-1.12,2.57.22,5.15.27,7.7.6,4.19.54,6.23,4.12,4.68,8.06a4.74,4.74,0,0,1-3.81,3.09,18,18,0,0,1-4.28.06c-1.71-.14-3.42-.32-5.14-.41C339.7,256.1,339.35,255.79,339.43,254.85Z" transform="translate(-10.77 -183.45)"/><path class="cls-14" d="M133.76,280.64c-.07-1.57-.26-3.14-.46-4.7a1.49,1.49,0,0,0-1.79-1.42c-.86.08-1.72.14-2.58.23l-17.33,1.84c-.33-2.85-.67-5.47-.93-8.1-.14-1.49-.08-1.5,1.46-1.67l4.27-.46c4-.43,8-.84,12-1.28,1.5-.17,1.84-.56,1.77-2.09-.06-1.29-.23-2.57-.36-3.86a1.47,1.47,0,0,0-1.75-1.45c-1.14.09-2.29.17-3.43.3-4.49.48-9,1-13.47,1.46-1.53.16-1.54.11-1.71-1.4-.24-2.07-.47-4.13-.71-6.2-.18-1.49-.17-1.56,1.35-1.74,2.92-.34,5.85-.65,8.77-.95s6.14-.59,9.2-.93c1.57-.18,2-.73,1.86-2.27-.07-.85-.2-1.71-.26-2.56-.23-2.93-.37-3.14-3.21-2.86-6.07.59-12.12,1.26-18.18,1.93q-4.06.43-8.11,1c-1.76.25-2,.67-1.86,2.43,0,.22.06.43.09.64q1.63,13.35,3.29,26.68c.42,3.42.83,6.83,1.27,10.25.21,1.58.65,1.91,2.29,1.82.28,0,.57-.06.85-.1l18.17-2.06c2.56-.28,5.13-.53,7.7-.82C133.24,282.16,133.81,281.7,133.76,280.64Z" transform="translate(-10.77 -183.45)"/><path class="cls-14" d="M292.66,276.83c4.73.21,9.46.39,14.19.6,3.94.17,7.88.38,11.83.54,2.14.08,2.46-.25,2.57-2.43.05-1.08.1-2.15.11-3.23,0-1.7-.25-2-1.95-2.11q-3.44-.22-6.88-.38c-3.72-.17-7.45-.3-11.18-.46-1.5-.06-1.51-.08-1.44-1.62q.12-3.12.26-6.24c.07-1.89.07-1.88,1.9-1.8l15.05.66,1.5,0a1.52,1.52,0,0,0,1.7-1.55c.09-1.07.1-2.15.13-3.23.07-2.37-.09-2.54-2.51-2.65L302,252.21c-1.46-.08-1.48-.08-1.45-1.6,0-2.08.09-4.16.2-6.24.08-1.58.13-1.59,1.61-1.52,4.09.18,8.17.38,12.25.57,2,.09,4,.2,6,.22,1.39,0,1.77-.36,1.89-1.75.1-1.15.11-2.3.17-3.44.11-2.13-.23-2.53-2.37-2.62-8.74-.39-17.48-.88-26.23-1-2.41,0-2.61.11-2.69,2.45q-.31,9.36-.6,18.71h0c-.18,6.09-.38,12.18-.54,18.28C290.25,276.52,290.45,276.73,292.66,276.83Z" transform="translate(-10.77 -183.45)"/><path class="cls-14" d="M408.45,286c1.7.28,3.42.41,5.12.67a2.4,2.4,0,0,0,2.78-1.47c.81-1.6,1.72-3.14,2.57-4.72.32-.59.59-1.05,1.46-.92,5,.73,9.93,1.41,14.9,2.09.94.12,1.3.62,1.46,1.53.32,1.76.84,3.48,1.16,5.24a2.3,2.3,0,0,0,2.17,2c1.63.24,3.26.47,4.89.73,2.2.34,2.73-.22,2.27-2.46-1.06-5.12-2.11-10.24-3.21-15.35-1.69-7.84-3.44-15.67-5.09-23.52a2.84,2.84,0,0,0-2.64-2.62c-2.49-.31-5-.69-8.07-1.13-1-.17-1.69.82-2.35,2q-7.29,13.65-14.64,27.27c-1.39,2.59-2.78,5.18-4.12,7.8C406.17,285,406.47,285.63,408.45,286Zm22.73-29.66.39,0c1.2,5.69,2.41,11.38,3.62,17.15a4.3,4.3,0,0,1-.86.11l-11.52-1.67Z" transform="translate(-10.77 -183.45)"/><path class="cls-14" d="M232.86,242.7c2.87,0,5.74,0,8.61-.06,1.64,0,1.85-.31,1.86,1.9q0,8,.07,15.92,0,6.78.14,13.56c0,1.92.39,2.23,2.3,2.25s3.58,0,5.38,0,2-.35,2.08-2c0-.5,0-1,0-1.5q0-14.2,0-28.41c0-1.78,0-1.8,1.75-1.8,2.87,0,5.74.06,8.61,0,2.08,0,2.41-.35,2.45-2.33q0-1.72,0-3.45c0-2.31-.32-2.67-2.55-2.67-5.1,0-10.19,0-15.28,0-1.94,0-3.88,0-5.81,0-3.45.05-6.89.1-10.33.24-1.43.05-1.73.42-1.76,1.86s0,2.72,0,4.08C230.53,242.4,230.83,242.71,232.86,242.7Z" transform="translate(-10.77 -183.45)"/><path class="cls-14" d="M202.92,261.47c.19,4.58.39,9.16.64,13.74.1,1.75.39,2,2.09,2s3.44-.06,5.16-.12c2.38-.09,2.69-.45,2.6-2.83q-.32-9-.61-18-.28-9.24-.56-18.48a9.38,9.38,0,0,0-.11-1.5,1.4,1.4,0,0,0-1.47-1.29c-2.36.05-4.73.11-7.09.22A1.55,1.55,0,0,0,202,237c0,.5,0,1,0,1.51Q202.46,250,202.92,261.47Z" transform="translate(-10.77 -183.45)"/><path class="cls-14" d="M213.41,274.22q-.32-9-.61-18-.28-9.24-.56-18.48.28,9.24.56,18.48Q213.1,265.2,213.41,274.22Z" transform="translate(-10.77 -183.45)"/><path class="cls-14" d="M272.86,276.33q3.54.18,7.08.18a1.34,1.34,0,0,0,1.41-1.34c0-.57.09-1.15.1-1.72q.17-7.95.32-15.89c.15-6.88.32-13.75.44-20.62,0-2.27-.2-2.47-2.4-2.53l-5.15-.14c-2.12-.05-2.5.28-2.55,2.42q-.21,9.23-.38,18.46h-.11c0,4.36,0,8.73,0,13.1,0,2.08-.07,4.15-.09,6.23C271.52,275.42,271.74,276.28,272.86,276.33Z" transform="translate(-10.77 -183.45)"/><path class="cls-14" d="M298,321.78c-.41.38-.83.73-1.25,1.1h0C297.19,322.51,297.61,322.16,298,321.78Z" transform="translate(-10.77 -183.45)"/><path class="cls-12" d="M354.87,184.09c0-.21-.07-.43-.1-.64h0C354.8,183.67,354.83,183.88,354.87,184.09Z" transform="translate(-10.77 -183.45)"/><path class="cls-3" d="M82.11,260.7c-1.1-4.07-3.9-6.13-8.1-5.83-2.57.18-5.11.71-7.66,1-.83.11-1.13.44-1,1.26.09.41.09.85.15,1.28q1.08,7.21,2.17,14.43c.4,2.69.82,5.38,1.23,8.07.09.64.07,1.4,1.06,1.21,2.74-.51,5.55-.63,8.25-1.37,3.92-1.08,5.64-3.43,5.63-8.09-.24-2-.49-4.59-.84-7.14A39.53,39.53,0,0,0,82.11,260.7Z" transform="translate(-10.77 -183.45)"/><path class="cls-3" d="M382.48,259.79l7.06.68a8.35,8.35,0,0,0,2.36-.11,4.72,4.72,0,0,0,3.91-3.25c1.4-3.86-.42-7.2-4.45-7.89-2.53-.43-5.12-.57-7.68-.91-1-.15-1.41.23-1.5,1.22-.28,3-.57,6-.94,9C381.12,259.56,381.7,259.71,382.48,259.79Z" transform="translate(-10.77 -183.45)"/><path class="cls-3" d="M340.6,256.14c1.72.09,3.43.27,5.14.41a18,18,0,0,0,4.28-.06,4.74,4.74,0,0,0,3.81-3.09c1.55-3.94-.49-7.52-4.68-8.06-2.55-.33-5.13-.38-7.7-.6-.89-.08-1.28.16-1.34,1.12-.17,3-.41,6-.68,9C339.35,255.79,339.7,256.1,340.6,256.14Z" transform="translate(-10.77 -183.45)"/><path class="cls-3" d="M435.19,273.48c-1.21-5.77-2.42-11.46-3.62-17.15l-.39,0-8.37,15.62,11.52,1.67A4.3,4.3,0,0,0,435.19,273.48Z" transform="translate(-10.77 -183.45)"/></svg>